<svg width="1200" height="630" viewBox="0 0 1200 630" fill="none" xmlns="http://www.w3.org/2000/svg">
  <rect width="1200" height="630" rx="48" fill="#06121F" />
  <circle cx="320" cy="200" r="150" fill="#10B981" opacity="0.25" />
  <circle cx="880" cy="180" r="190" fill="#F97316" opacity="0.25" />
  <circle cx="620" cy="420" r="220" fill="#0EA5E9" opacity="0.18" />
  <g transform="translate(160 160)">
    <rect x="0" y="0" width="360" height="220" rx="36" fill="#0D2538" stroke="#22D3EE" stroke-width="2" />
    <rect x="36" y="42" width="140" height="20" rx="10" fill="#38BDF8" />
    <rect x="36" y="84" width="280" height="16" rx="8" fill="#F8FAFC" opacity="0.8" />
    <rect x="36" y="116" width="240" height="16" rx="8" fill="#F8FAFC" opacity="0.6" />
    <rect x="36" y="148" width="200" height="16" rx="8" fill="#F8FAFC" opacity="0.4" />
  </g>
  <g transform="translate(740 260)">
    <rect x="0" y="0" width="260" height="180" rx="32" fill="#1A2B3C" stroke="#FCD34D" stroke-width="2" />
    <rect x="32" y="42" width="120" height="16" rx="8" fill="#FDE68A" />
    <rect x="32" y="76" width="180" height="14" rx="7" fill="#FFF7ED" opacity="0.8" />
    <rect x="32" y="106" width="140" height="14" rx="7" fill="#FFF7ED" opacity="0.6" />
    <rect x="32" y="136" width="100" height="14" rx="7" fill="#FFF7ED" opacity="0.4" />
  </g>
  <text x="140" y="520" fill="#F8FAFC" font-size="52" font-weight="600" font-family="'Inter', sans-serif">Aprendizajes asíncronos</text>
  <text x="140" y="570" fill="#CBD5F5" font-size="28" font-family="'Inter', sans-serif">Insights semanales sin videollamadas</text>
</svg>
