<svg width="1200" height="630" viewBox="0 0 1200 630" fill="none" xmlns="http://www.w3.org/2000/svg">
  <rect width="1200" height="630" rx="48" fill="#111827" />
  <rect x="120" y="120" width="960" height="390" rx="40" fill="#1F2937" stroke="#4ADE80" stroke-width="3" />
  <rect x="180" y="180" width="300" height="120" rx="24" fill="#10B981" opacity="0.25" />
  <rect x="540" y="180" width="420" height="60" rx="18" fill="#0EA5E9" opacity="0.3" />
  <rect x="540" y="260" width="300" height="20" rx="10" fill="#E5E7EB" opacity="0.9" />
  <rect x="540" y="300" width="240" height="20" rx="10" fill="#E5E7EB" opacity="0.6" />
  <rect x="540" y="340" width="360" height="20" rx="10" fill="#E5E7EB" opacity="0.4" />
  <circle cx="260" cy="240" r="52" stroke="#34D399" stroke-width="8" opacity="0.7" />
  <path d="M220 360H380" stroke="#34D399" stroke-width="18" stroke-linecap="round" opacity="0.4" />
  <path d="M220 400H420" stroke="#34D399" stroke-width="18" stroke-linecap="round" opacity="0.2" />
  <text x="140" y="80" fill="#A5B4FC" font-size="46" font-weight="600" font-family="'Inter', sans-serif">Calm release notes</text>
  <text x="140" y="130" fill="#67E8F9" font-size="28" font-family="'Inter', sans-serif">Reduce noise, highlight intent</text>
  <path d="M100 520C220 460 380 470 520 520C660 570 880 560 1040 510" stroke="#F472B6" stroke-width="12" stroke-linecap="round" opacity="0.35" />
</svg>
