<svg width="1200" height="630" viewBox="0 0 1200 630" fill="none" xmlns="http://www.w3.org/2000/svg">
  <rect width="1200" height="630" rx="48" fill="#0F172A" />
  <circle cx="230" cy="200" r="150" fill="#1D4ED8" opacity="0.4" />
  <circle cx="950" cy="160" r="190" fill="#06B6D4" opacity="0.35" />
  <path d="M220 430C320 330 460 330 560 410C660 490 840 500 980 430" stroke="#FDE68A" stroke-width="18" stroke-linecap="round" opacity="0.5" />
  <g transform="translate(160 320)">
    <rect x="0" y="0" width="280" height="160" rx="28" fill="#1E293B" stroke="#94A3B8" stroke-width="2" />
    <rect x="24" y="32" width="100" height="16" rx="8" fill="#38BDF8" />
    <rect x="24" y="64" width="220" height="12" rx="6" fill="#E2E8F0" opacity="0.8" />
    <rect x="24" y="92" width="180" height="12" rx="6" fill="#E2E8F0" opacity="0.6" />
    <rect x="24" y="120" width="140" height="12" rx="6" fill="#E2E8F0" opacity="0.4" />
  </g>
  <g transform="translate(720 280)">
    <rect x="0" y="0" width="320" height="200" rx="32" fill="#083344" stroke="#67E8F9" stroke-width="2" />
    <rect x="36" y="44" width="180" height="16" rx="8" fill="#F472B6" />
    <rect x="36" y="78" width="240" height="14" rx="7" fill="#ECFEFF" opacity="0.8" />
    <rect x="36" y="108" width="200" height="14" rx="7" fill="#ECFEFF" opacity="0.6" />
    <rect x="36" y="138" width="160" height="14" rx="7" fill="#ECFEFF" opacity="0.4" />
  </g>
  <text x="120" y="110" fill="#F8FAFC" font-size="48" font-weight="600" font-family="'Inter', sans-serif">Connected rituals</text>
  <text x="120" y="160" fill="#CBD5F5" font-size="28" font-family="'Inter', sans-serif">Async planning across languages</text>
</svg>
